<svg width="592" height="607" viewBox="0 0 592 607" fill="none" xmlns="http://www.w3.org/2000/svg">
<rect x="57.0164" width="475.541" height="561.672" fill="#FFBB5A" fill-opacity="0.5"/>
<g opacity="0.7">
<path d="M344.525 553.18V257.18H511.934V553.18H344.525Z" fill="#FFA627"/>
<rect x="360.295" y="280.229" width="134.656" height="19.4098" fill="#FFBB5A"/>
<rect x="360.295" y="320.262" width="134.656" height="19.4098" fill="#FFBB5A"/>
<rect x="360.295" y="360.295" width="134.656" height="19.4098" fill="#FFBB5A"/>
<rect x="360.295" y="400.328" width="134.656" height="19.4098" fill="#FFBB5A"/>
</g>
<g opacity="0.7">
<path d="M235.344 552.126V359.082H344.525V552.126H235.344Z" fill="#FFA627"/>
<rect x="245.629" y="374.114" width="87.819" height="12.6586" fill="#FFBB5A"/>
<rect x="245.629" y="400.223" width="87.819" height="12.6586" fill="#FFBB5A"/>
<rect x="245.629" y="426.331" width="87.819" height="12.6586" fill="#FFBB5A"/>
<rect x="245.629" y="452.439" width="87.819" height="12.6586" fill="#FFBB5A"/>
</g>
<g opacity="0.7">
<path d="M74 575.491V292.361H234.131V575.491H74Z" fill="#FFA627"/>
<rect x="89.0848" y="314.408" width="128.801" height="18.5659" fill="#FFBB5A"/>
<rect x="89.0848" y="352.7" width="128.801" height="18.5659" fill="#FFBB5A"/>
<rect x="89.0848" y="390.992" width="128.801" height="18.5659" fill="#FFBB5A"/>
<rect x="89.0848" y="429.284" width="128.801" height="18.5659" fill="#FFBB5A"/>
</g>
<g opacity="0.8">
<path d="M159.165 473.744H200.568L159.165 432.341L188.19 403.316L159.165 374.291L139.104 354.229L119.043 374.291L90.0177 403.316L119.043 432.341L77.6394 473.744H121.177H159.165Z" fill="#6AB20E"/>
<path d="M151.055 561.672V474.171H126.299V561.672H151.055Z" fill="#B26F0E"/>
</g>
<g opacity="0.8">
<path d="M267.132 517.416H308.536L267.132 476.013L296.157 446.988L267.132 417.963L247.071 397.902L227.01 417.963L197.985 446.988L227.01 476.013L185.607 517.416H229.144H267.132Z" fill="#6AB20E"/>
<path d="M259.022 605.344V517.843H234.266V605.344H259.022Z" fill="#B26F0E"/>
</g>
<g opacity="0.8">
<path d="M389.657 494.367H431.06L389.657 452.964L418.682 423.939L389.657 394.914L369.596 374.852L349.534 394.914L320.509 423.939L349.534 452.964L308.131 494.367H351.668H389.657Z" fill="#6AB20E"/>
<path d="M381.547 582.295V494.794H356.791V582.295H381.547Z" fill="#B26F0E"/>
</g>
<g opacity="0.8">
<path d="M491.559 472.531H532.962L491.559 431.127L520.583 402.103L491.559 373.078L471.497 353.016L451.436 373.078L422.411 402.103L451.436 431.127L410.033 472.531H453.57H491.559Z" fill="#6AB20E"/>
<path d="M483.449 560.459V472.958H458.692V560.459H483.449Z" fill="#B26F0E"/>
</g>
<ellipse cx="296" cy="574.41" rx="296" ry="32.1475" fill="#FFA627"/>
<ellipse rx="92" ry="9.5" transform="matrix(1 0 0 -1 189 587.5)" fill="black" fill-opacity="0.1"/>
<circle cx="146.957" cy="484.787" r="88.4666" stroke="black" stroke-width="2.94881"/>
<circle cx="146.957" cy="484.788" r="78.0387" stroke="white" stroke-width="2.94881"/>
<path fill-rule="evenodd" clip-rule="evenodd" d="M257.102 533.017C272.58 533.017 285.127 520.47 285.127 504.992C285.127 489.514 272.58 476.967 257.102 476.967C241.624 476.967 229.077 489.514 229.077 504.992C229.077 520.47 241.624 533.017 257.102 533.017ZM262.328 486.907L239.09 506.204C236.95 500.037 238.708 492.924 244.026 488.508C249.344 484.092 256.659 483.67 262.328 486.907ZM263.313 522.958L236.226 509.589C235.578 516.084 238.941 522.594 245.14 525.654C251.338 528.713 258.551 527.423 263.313 522.958ZM261.589 518.853L277.052 492.905C281.127 498.004 281.845 505.296 278.306 511.234C274.767 517.172 268.013 520.011 261.589 518.853Z" fill="#FFBB5A"/>
<path d="M375.72 359.652L380.283 377.249M375.72 359.652H226.47M375.72 359.652L369.661 333.596C369.456 332.716 370.276 331.942 371.143 332.197L391.362 338.144M380.283 377.249L261.665 495.867M380.283 377.249L411.566 473.056L423.95 486.091M261.665 495.867L226.47 359.652M261.665 495.867L256.451 504.34M226.47 359.652L223.138 349.876M204.963 299.691L223.138 349.876M223.138 349.876L146.957 477.618M150.216 488.698L256.451 504.34M256.451 504.34L292.949 512.812M292.949 512.812L297.511 532.365M292.949 512.812H307.939L311.197 535.624" stroke="#FFA627" stroke-width="2.94881"/>
<path d="M262.836 477.618H143.185C139.784 477.618 136.677 479.224 135.544 482.431C135.389 482.87 135.247 483.29 135.122 483.67C134.741 484.837 134.59 486.064 134.677 487.288C134.723 487.939 134.788 488.705 134.877 489.489C135.208 492.401 137.415 494.432 140.191 495.373L252.825 533.533C254.357 534.052 255.988 534.267 257.592 534.063C272.559 532.164 279.227 525.002 281.288 520.356C281.767 519.276 282.192 518.155 282.75 517.113C293.882 496.342 277.962 483.196 266.857 478.39C265.59 477.842 264.217 477.618 262.836 477.618Z" stroke="#B26F0E" stroke-width="1.76929"/>
<circle cx="421.994" cy="484.787" r="88.4666" stroke="black" stroke-width="2.94881"/>
<circle cx="421.994" cy="484.788" r="78.0387" stroke="white" stroke-width="2.94881"/>
<circle cx="423.95" cy="488.046" r="13.6867" fill="#FFBB5A"/>
<circle cx="423.95" cy="488.046" r="11.0797" fill="#FFA627"/>
<circle cx="144.35" cy="487.395" r="7.82096" fill="#FFA627"/>
<path d="M314.457 542.793L313.153 513.464H298.163V542.793" stroke="black" stroke-width="4.12834"/>
<path d="M185.411 292.522V298.324C185.411 304.839 190.691 310.12 197.206 310.12H208.222" stroke="#FFA627" stroke-width="1.76929"/>
<path d="M246.055 294.754C247.037 294.642 247.44 293.462 246.699 292.809C243.588 290.068 238.629 286.43 234.799 286.005C230.139 285.487 189.517 282.783 169.383 281.469C169.111 281.452 168.851 281.526 168.639 281.697C167.139 282.908 165.247 285.371 167.67 287.308C170.099 289.252 173.849 289.082 175.755 288.699C176.008 288.648 176.271 288.667 176.508 288.768L180.531 290.493C180.646 290.542 180.749 290.606 180.843 290.689C185.985 295.2 196.049 303.282 198.558 302.561C198.855 302.476 199.124 302.272 199.429 302.225L215.716 299.72C215.837 299.701 215.955 299.664 216.064 299.609L219.623 297.83C219.746 297.768 219.88 297.728 220.017 297.713L246.055 294.754Z" fill="black"/>
<path fill-rule="evenodd" clip-rule="evenodd" d="M394.587 346.706C390.416 344.389 389.155 338.979 391.871 335.056C392.397 334.296 393.1 333.692 394.022 333.626C395.566 333.514 398.188 333.62 401.139 333.907C405.679 334.349 409.744 335.465 412.218 336.514C414.317 337.404 422.821 341.208 425.253 343.032C427.86 344.987 429.815 346.29 430.467 348.246C432.659 354.822 435.765 369.294 430.228 374.461C429.223 375.399 428.022 376.124 427.041 377.087C424.956 379.136 422.79 380.99 419.388 382.136C415.74 383.365 403.195 385.957 394.412 385.716C392.267 385.658 390.706 384.041 390.707 381.894C390.707 379.587 392.499 377.455 394.802 377.301L404.81 376.634C408.269 376.404 411.576 374.72 413.086 371.6C415.67 366.259 416.896 359.316 410.263 355.415L394.587 346.706ZM413.687 344.801C413.144 344.487 412.574 344.226 411.986 344.009L401.669 340.208C400.983 339.956 400.215 340.226 399.839 340.853C399.247 341.839 399.925 343.154 401.018 343.511C407.242 345.549 414.046 353.617 420.691 361.281C423.624 364.663 427.427 364.119 427.019 359.661C426.626 355.363 423.431 352.187 423.298 351.504C423.113 350.556 417.304 346.89 413.687 344.801Z" fill="black" stroke="black" stroke-width="0.589763"/>
<circle cx="146.787" cy="117.672" r="41.2459" fill="#FFBB5A"/>
<path d="M92.5081 119.787L80.7982 131.497C71.6206 140.674 77.6402 156.386 90.6006 157.082L198.676 162.885C212.411 163.622 219.813 147.026 210.086 137.299L199.246 126.459C193.388 120.601 183.891 120.601 178.033 126.459L159.82 144.672C153.962 150.53 144.464 150.53 138.606 144.672L113.721 119.787C107.863 113.929 98.366 113.929 92.5081 119.787Z" fill="white"/>
<path d="M185.488 501.744C188.147 494.832 197.962 494.933 200.478 501.899L207.222 520.571C209.106 525.786 205.242 531.289 199.698 531.289H185.769C180.155 531.289 176.287 525.656 178.303 520.416L185.488 501.744Z" stroke="#B26F0E" stroke-width="4"/>
<path d="M132 536.022C132 530.499 136.477 526.022 142 526.022H243C248.523 526.022 253 530.499 253 536.022V590.24H132V536.022Z" fill="#B26F0E"/>
<rect x="152.279" y="515.883" width="80.4413" height="42.5866" rx="10" fill="#FFA627"/>
<path fill-rule="evenodd" clip-rule="evenodd" d="M184.05 515.883H201.626V542.246C201.626 547.099 197.691 551.034 192.838 551.034C187.985 551.034 184.05 547.099 184.05 542.246V515.883ZM196.894 545.288C196.894 545.848 196.44 546.302 195.88 546.302C195.32 546.302 194.866 545.848 194.866 545.288C194.866 544.728 195.32 544.274 195.88 544.274C196.44 544.274 196.894 544.728 196.894 545.288ZM190.472 546.302C191.032 546.302 191.486 545.848 191.486 545.288C191.486 544.728 191.032 544.274 190.472 544.274C189.912 544.274 189.458 544.728 189.458 545.288C189.458 545.848 189.912 546.302 190.472 546.302Z" fill="#FFBB5A"/>
<path d="M234.073 571.313H151.603C141.15 571.313 132.676 579.787 132.676 590.24H253C253 579.787 244.526 571.313 234.073 571.313Z" fill="#FFA627"/>
</svg>
