<svg width="237" height="237" viewBox="0 0 237 237" fill="none" xmlns="http://www.w3.org/2000/svg">
<circle cx="118.5" cy="118.5" r="118.5" fill="#FFBB5A"/>
<circle cx="78.2952" cy="135.45" r="25.7723" stroke="white" stroke-width="1.04585"/>
<circle cx="78.2952" cy="135.45" r="22.2465" stroke="white" stroke-width="2"/>
<path fill-rule="evenodd" clip-rule="evenodd" d="M110.497 149.55C115.022 149.55 118.691 145.882 118.691 141.357C118.691 136.832 115.022 133.163 110.497 133.163C105.972 133.163 102.304 136.832 102.304 141.357C102.304 145.882 105.972 149.55 110.497 149.55ZM112.025 136.07L105.231 141.711C104.605 139.908 105.119 137.829 106.674 136.538C108.229 135.247 110.368 135.123 112.025 136.07ZM112.313 146.61L104.394 142.701C104.204 144.6 105.188 146.503 107 147.398C108.812 148.292 110.921 147.915 112.313 146.61ZM111.809 145.409L116.33 137.823C117.521 139.314 117.731 141.446 116.696 143.182C115.662 144.918 113.687 145.748 111.809 145.409Z" fill="#FFBB5A"/>
<path d="M145.176 98.8653L146.51 104.01M145.176 98.8653H101.542M145.176 98.8653L143.433 91.3703C143.361 91.0583 143.652 90.7838 143.959 90.8742L149.749 92.5773M146.51 104.01L111.831 138.689M146.51 104.01L155.656 132.02L159.277 135.831M111.831 138.689L101.542 98.8653M111.831 138.689L110.307 141.166M101.542 98.8653L100.567 96.0072M95.2536 81.3352L100.567 96.0072M100.567 96.0072L78.2952 133.354M79.2479 136.593L110.307 141.166M110.307 141.166L120.977 143.643M120.977 143.643L122.311 149.36M120.977 143.643H125.36L126.312 150.312" stroke="white" stroke-width="2"/>
<path d="M112.043 133.354H77.4765C76.3015 133.354 75.1173 134.218 74.7659 135.339C74.639 135.744 74.6796 135.856 74.7121 136.279C74.7185 136.362 74.7258 136.451 74.7343 136.542C74.8305 137.577 75.6012 138.302 76.5858 138.636L109.102 149.652C109.645 149.836 110.223 149.914 110.791 149.836C114.955 149.267 116.876 147.293 117.521 145.95C117.703 145.572 117.852 145.175 118.047 144.804C121.162 138.861 116.691 135.071 113.469 133.632C113.021 133.433 112.533 133.354 112.043 133.354Z" stroke="white"/>
<circle cx="158.705" cy="135.45" r="25.7723" stroke="white" stroke-width="1.04585"/>
<circle cx="158.705" cy="135.45" r="22.2465" stroke="white" stroke-width="2"/>
<circle cx="159.277" cy="136.403" r="4.00144" fill="#FFBB5A"/>
<circle cx="159.277" cy="136.403" r="3.23926" fill="white"/>
<circle cx="77.533" cy="136.212" r="2.28654" fill="white"/>
<path d="M127.265 152.408L126.884 143.834H122.502V152.408" stroke="black" stroke-width="1.46418"/>
<path d="M89.5374 79.2393V80.2006C89.5374 82.511 91.4103 84.384 93.7207 84.384H96.2064" stroke="#FFA627" stroke-width="0.627507"/>
<path d="M107.116 79.9089C107.464 79.8693 107.606 79.4515 107.341 79.2228C106.427 78.4358 105.05 77.4531 103.977 77.3338C102.616 77.1826 90.7724 76.3942 84.8772 76.0095C84.7809 76.0032 84.688 76.0295 84.6136 76.0909C84.1787 76.4504 83.6533 77.1571 84.3506 77.7149C85.0508 78.2751 86.1262 78.2348 86.6904 78.1261C86.7802 78.1088 86.8732 78.1155 86.9572 78.1515L88.1001 78.6413C88.1408 78.6587 88.1774 78.6817 88.2107 78.7109C89.698 80.0148 92.577 82.3265 93.3531 82.1807C93.4606 82.1605 93.5573 82.0881 93.6654 82.0715L98.3861 81.3452C98.429 81.3386 98.4707 81.3254 98.5096 81.3059L99.5279 80.7967C99.5718 80.7748 99.6191 80.7608 99.6678 80.7553L107.116 79.9089Z" fill="black"/>
<path fill-rule="evenodd" clip-rule="evenodd" d="M150.692 95.0803C149.473 94.4029 149.104 92.8212 149.898 91.6743C150.052 91.4521 150.258 91.2756 150.527 91.2561C150.979 91.2235 151.745 91.2545 152.608 91.3385C153.935 91.4678 155.124 91.7939 155.847 92.1007C156.461 92.3608 158.947 93.4728 159.658 94.0061C160.42 94.5777 160.992 94.9588 161.182 95.5305C161.811 97.4156 162.696 101.52 161.204 103.103C160.87 103.458 160.438 103.714 160.088 104.053C159.506 104.616 158.888 105.121 157.943 105.439C156.877 105.798 153.209 106.556 150.641 106.485C150.014 106.468 149.558 105.996 149.558 105.368C149.558 104.693 150.082 104.07 150.755 104.025L153.381 103.85C154.583 103.77 155.744 103.189 156.226 102.085C156.89 100.567 157.103 98.7016 155.275 97.6265L150.692 95.0803ZM156.327 94.5529C156.135 94.4413 155.933 94.3486 155.724 94.2717L152.763 93.1807C152.562 93.1068 152.338 93.186 152.228 93.3692C152.055 93.6573 152.253 94.0418 152.572 94.1464C154.392 94.7422 156.381 97.1009 158.324 99.3414C159.181 100.33 160.293 100.171 160.174 98.8679C160.059 97.6113 159.125 96.6829 159.086 96.4832C159.033 96.2104 157.388 95.168 156.327 94.5529Z" fill="black" stroke="black" stroke-width="0.209169"/>
<path d="M33 166H204.5" stroke="#FFA627" stroke-width="10"/>
</svg>
