<svg width="168" height="15" viewBox="0 0 168 15" fill="none" xmlns="http://www.w3.org/2000/svg">
<path d="M85.5 0L87.1839 5.18237H92.6329L88.2245 8.38525L89.9084 13.5676L85.5 10.3647L81.0916 13.5676L82.7755 8.38525L78.3671 5.18237H83.8161L85.5 0Z" fill="#FFBB5A"/>
<path d="M104.5 0L106.184 5.18237H111.633L107.225 8.38525L108.908 13.5676L104.5 10.3647L100.092 13.5676L101.775 8.38525L97.3671 5.18237H102.816L104.5 0Z" fill="#FFBB5A"/>
<path d="M123 0L124.796 5.18237H130.608L125.906 8.38525L127.702 13.5676L123 10.3647L118.298 13.5676L120.094 8.38525L115.392 5.18237H121.204L123 0Z" fill="#FFBB5A"/>
<path d="M141.5 0L143.184 5.18237H148.633L144.225 8.38525L145.908 13.5676L141.5 10.3647L137.092 13.5676L138.775 8.38525L134.367 5.18237H139.816L141.5 0Z" fill="#FFBB5A"/>
<path d="M160.5 0L162.184 5.18237H167.633L163.225 8.38525L164.908 13.5676L160.5 10.3647L156.092 13.5676L157.775 8.38525L153.367 5.18237H158.816L160.5 0Z" fill="#FFBB5A"/>
<path d="M0 8H67.5" stroke="#FFBB5A" stroke-width="2"/>
</svg>
