<svg width="525" height="575" viewBox="0 0 525 575" fill="none" xmlns="http://www.w3.org/2000/svg">
<path d="M2 396.979H522.466V574.336H77C35.5787 574.336 2 540.757 2 499.336V396.979Z" fill="#C4C4C4"/>
<rect x="30.1781" y="463.281" width="105.253" height="24.0342" fill="white"/>
<rect x="183.5" y="465.767" width="105.253" height="24.0342" fill="white"/>
<rect x="365.829" y="465.767" width="105.253" height="24.0342" fill="white"/>
<rect x="2.82874" width="521.294" height="203.877" fill="#FFA627"/>
<path d="M2.82874 402.366H523.709V203.462C490.973 201.39 420.362 198.49 399.808 203.462C379.255 208.435 309.196 196.418 276.736 189.788C250.63 196.832 190.544 208.186 159.051 197.247C127.558 186.307 41.7808 192.688 2.82874 197.247V402.366Z" fill="#FFBB5A"/>
<path d="M2.82874 305.815V402.781H521.637V305.815H2.82874Z" stroke="white" stroke-width="5"/>
<path d="M62.0719 305.815V404.024H67.0719V305.815H62.0719ZM114.699 305.815V404.024H119.699V305.815H114.699ZM167.74 305.815V404.024H172.74V305.815H167.74ZM217.466 305.815V404.024H222.466V305.815H217.466ZM251.445 305.815V404.024H256.445V305.815H251.445ZM301.171 305.815V404.024H306.171V305.815H301.171ZM395.651 305.815V404.024H400.651V305.815H395.651ZM435.017 305.815V404.024H440.017V305.815H435.017ZM493.86 305.815V404.024H498.86V305.815H493.86Z" fill="white"/>
<circle cx="154.259" cy="424.591" r="51.1353" stroke="black" stroke-width="5"/>
<circle cx="154.259" cy="424.591" r="44.9167" stroke="white" stroke-width="5"/>
<path fill-rule="evenodd" clip-rule="evenodd" d="M219.942 453.352C229.172 453.352 236.655 445.87 236.655 436.64C236.655 427.41 229.172 419.927 219.942 419.927C210.712 419.927 203.23 427.41 203.23 436.64C203.23 445.87 210.712 453.352 219.942 453.352ZM223.059 425.855L209.201 437.363C207.925 433.685 208.973 429.443 212.145 426.81C215.316 424.176 219.678 423.925 223.059 425.855ZM223.646 447.354L207.493 439.381C207.107 443.254 209.112 447.137 212.809 448.961C216.505 450.786 220.806 450.016 223.646 447.354ZM222.618 444.905L231.839 429.432C234.27 432.472 234.697 436.821 232.587 440.362C230.477 443.903 226.449 445.596 222.618 444.905Z" fill="#FFBB5A"/>
<path d="M290.679 349.968L293.399 360.462M290.679 349.968H201.675M290.679 349.968L287.569 336.595C287.222 335.103 288.612 333.791 290.081 334.223L300.007 337.142M293.399 360.462L222.663 431.198M293.399 360.462L312.055 417.595L319.44 425.369M222.663 431.198L201.675 349.968M222.663 431.198L219.554 436.251M201.675 349.968L199.688 344.138M188.85 314.211L199.688 344.138M199.688 344.138L154.259 420.316M156.202 426.923L219.554 436.251M219.554 436.251L241.319 441.304M241.319 441.304L244.039 452.964M241.319 441.304H250.258L252.201 454.907" stroke="#FFA627" stroke-width="5"/>
<path d="M221.067 420.316H152.589C150.192 420.316 147.777 422.079 147.06 424.366C146.801 425.191 146.884 425.42 146.95 426.283C146.955 426.342 146.959 426.402 146.964 426.463C147.156 428.806 148.885 430.45 151.111 431.205L214.84 452.796C217.436 453.675 220.211 454.11 222.888 453.521C228.484 452.289 231.718 449.73 233.371 447.487C234.559 445.874 235.297 443.949 236.087 442.107C240.452 431.935 233.785 425.074 227.819 421.788C225.768 420.659 223.408 420.316 221.067 420.316Z" stroke="#B26F0E" stroke-width="3"/>
<circle cx="318.274" cy="424.591" r="51.1353" stroke="black" stroke-width="5"/>
<circle cx="318.274" cy="424.591" r="44.9167" stroke="white" stroke-width="5"/>
<circle cx="319.44" cy="426.534" r="8.16189" fill="#FFBB5A"/>
<circle cx="319.439" cy="426.534" r="6.60724" fill="#FFA627"/>
<circle cx="152.704" cy="426.146" r="4.66394" fill="#FFA627"/>
<path d="M254.145 459.182L253.367 441.692H244.428V459.182" stroke="black" stroke-width="7"/>
<path d="M177.19 309.936V309.936C177.19 315.732 181.888 320.43 187.683 320.43H190.793" stroke="#FFA627" stroke-width="3"/>
<path d="M210.683 311.57C212.347 311.381 212.997 309.408 211.64 308.427C210.031 307.264 208.183 306.221 206.642 306.049C203.898 305.745 180.245 304.169 168.091 303.375C167.631 303.345 167.172 303.465 166.843 303.789C166.049 304.569 165.349 305.818 166.61 306.827C167.893 307.853 169.794 307.891 171.001 307.728C171.435 307.669 171.88 307.697 172.282 307.87L174.09 308.644C174.284 308.728 174.463 308.84 174.622 308.979C177.44 311.438 182.492 315.491 184.509 315.913C185.021 316.021 185.555 315.721 186.072 315.642L195.061 314.259C195.267 314.227 195.466 314.164 195.652 314.071L197.386 313.204C197.596 313.099 197.822 313.032 198.055 313.005L210.683 311.57Z" fill="black"/>
<path fill-rule="evenodd" clip-rule="evenodd" d="M301.929 342.248C299.442 340.866 298.69 337.64 300.31 335.301C300.623 334.847 301.043 334.487 301.593 334.448C302.513 334.381 304.077 334.444 305.836 334.616C308.544 334.879 310.968 335.545 312.444 336.17C313.695 336.701 318.767 338.969 320.217 340.057C321.772 341.223 322.938 342 323.326 343.166C324.421 346.449 325.897 353.033 324.411 356.897C323.575 359.073 321.435 360.475 319.57 361.874C318.772 362.472 317.862 362.991 316.719 363.376C314.544 364.109 307.063 365.655 301.825 365.511C300.546 365.476 299.615 364.512 299.615 363.232C299.616 361.856 300.684 360.585 302.058 360.493L307.414 360.136C309.865 359.973 312.234 358.787 313.217 356.536C314.571 353.439 315.006 349.634 311.278 347.441L301.929 342.248ZM313.433 341.178C313.034 340.946 312.615 340.754 312.183 340.595L306.153 338.373C305.744 338.223 305.286 338.384 305.061 338.758C304.709 339.345 305.113 340.13 305.764 340.343C309.476 341.558 313.534 346.369 317.496 350.939C319.245 352.956 321.513 352.632 321.27 349.974C321.036 347.411 319.131 345.517 319.051 345.109C318.942 344.554 315.596 342.433 313.433 341.178Z" fill="black" stroke="black"/>
<path d="M386.286 466.567V453.302C382.127 455.022 373.917 454.019 370.331 453.302V466.746H370.152V472.842C368.431 472.698 362.384 474.335 359.575 475.172V467.105V466.567V454.377C354.986 455.955 346.907 455.034 343.441 454.377V466.746H343.262C343.441 468.718 343.692 472.698 343.262 472.842C342.724 473.021 332.685 477.323 329.279 479.295C326.554 480.873 326.351 481.984 326.59 482.343H386.824V466.567H386.286Z" fill="black"/>
<path d="M300.076 204.837C296.127 204.772 287.605 205.476 285.109 208.803C283.952 202.271 281.845 188.919 282.669 187.763L293.767 176.994L296.179 172.953C296.759 173.782 297.415 175.675 296.723 177.99L297.774 175.957C298.834 175.416 300.344 176.108 297.9 183.207L297.283 184.947C298.207 185.034 299.819 185.975 298.879 189.041C299.724 189.021 301.285 189.51 300.768 191.633C300.092 193.019 298.575 195.891 297.915 196.292L300.076 204.837Z" fill="#FFBB5A"/>
<path d="M367.209 192.649V185.657L346.773 161.994V162.89V163.608V164.504V165.4L345.698 166.655L343.905 173.826L347.669 184.582V192.649C358.712 201.54 365.297 196.353 367.209 192.649Z" fill="#FFBB5A"/>
<path d="M348.916 177.77L350.35 171.495L351.784 173.109C351.306 174.483 350.135 177.949 349.275 180.817C348.199 184.403 343.897 188.526 340.67 186.554C338.088 184.976 341.745 177.77 343.897 174.364L348.916 177.77Z" fill="black"/>
<path d="M377.705 177.118C379.451 181.962 373.582 184.784 370.429 185.589L365.009 184.082L356.269 177.562C353.334 175.211 347.334 169.151 346.818 163.724C346.301 158.297 352.506 155.567 355.673 154.88C365.392 152.83 369.316 162.609 370.063 167.755C371.883 168.858 375.959 172.274 377.705 177.118Z" fill="#B26F0E"/>
<path d="M342.87 455.632L350.937 457.424C354.761 457.365 362.41 456.6 362.41 454.018L362.947 440.932L365.099 439.498L367.25 440.573L368.505 452.226C371.66 459.109 382.727 455.811 387.865 453.301C387.507 454.078 387.148 455.166 388.583 453.301C390.017 451.437 389.897 442.844 389.658 438.781L391.272 437.884C398.872 433.295 396.47 416.97 394.319 409.381C393.028 408.377 392.347 401.314 392.168 397.908C401.49 380.125 397.845 361.816 394.857 354.884C393.279 354.454 392.885 339.766 392.885 332.476L394.498 274.573L328.887 272.96L326.557 407.947C325.84 424.726 334.863 438.123 339.464 442.725L342.87 455.632Z" fill="#FFBB5A"/>
<path d="M327.72 266.11V275.97H393.511V314.512L395.662 324.73C405.988 332.762 412.393 327.001 414.306 323.117V313.078L415.74 310.748L416.636 299.992C421.942 272.026 414.425 232.528 410.003 216.275C403.191 203.188 384.727 192.253 380.604 190.819C377.305 189.671 370.744 190.341 367.876 190.819C363.287 199.137 351.981 194.285 346.902 190.819C333.421 186.23 314.634 205.997 306.925 216.454L302.444 206.773C296.42 202.041 287.983 206.355 284.517 209.104L283.621 217.709C279.892 217.852 277.406 237.727 276.629 247.646C273.905 263.995 289.955 277.763 298.321 282.603C303.483 285.901 323.059 269.158 332.202 260.374L327.72 266.11Z" fill="#B26F0E"/>
<rect width="15.8836" height="25.7895" transform="matrix(-0.598097 0.801424 0.801424 0.598097 289.048 172.929)" fill="white"/>
<rect width="15.8836" height="2.98885" transform="matrix(-0.598097 0.801424 0.801424 0.598097 289.048 172.929)" fill="#FFBB5A"/>
<rect width="15.8836" height="2.98885" transform="matrix(-0.598097 0.801424 0.801424 0.598097 307.321 186.566)" fill="#FFBB5A"/>
<rect width="3.9282" height="0.341583" rx="0.170791" transform="matrix(-0.598097 0.801424 0.801424 0.598097 286.858 178.434)" fill="white"/>
<circle r="0.811259" transform="matrix(-0.598097 0.801424 0.801424 0.598097 303.795 193.791)" fill="white"/>
<circle cx="117.009" cy="75.6217" r="34.1832" fill="#FFBB5A"/>
<path d="M70.2078 79.1903L66.3915 83.0067C57.2139 92.1843 63.2334 107.896 76.1938 108.592L153.318 112.733C167.053 113.47 174.455 96.8739 164.729 87.1476L162.301 84.72C156.443 78.8621 146.946 78.8621 141.088 84.72L129.626 96.1819C123.768 102.04 114.27 102.04 108.413 96.1819L91.421 79.1903C85.5632 73.3325 76.0657 73.3325 70.2078 79.1903Z" fill="white"/>
</svg>
