<svg width="18" height="18" viewBox="0 0 18 18" fill="none" xmlns="http://www.w3.org/2000/svg">
<path d="M16.3507 8.86995C16.3507 13.0015 13.0014 16.3508 8.86989 16.3508V17.1289C13.4312 17.1289 17.1288 13.4312 17.1288 8.86995H16.3507ZM8.86989 16.3508C4.73833 16.3508 1.38905 13.0015 1.38905 8.86995H0.610954C0.610954 13.4312 4.3086 17.1289 8.86989 17.1289V16.3508ZM1.38905 8.86995C1.38905 4.73839 4.73833 1.38911 8.86989 1.38911V0.611015C4.3086 0.611015 0.610954 4.30867 0.610954 8.86995H1.38905ZM8.86989 1.38911C13.0014 1.38911 16.3507 4.73839 16.3507 8.86995H17.1288C17.1288 4.30867 13.4312 0.611015 8.86989 0.611015V1.38911ZM9.3006 9.35408L14.7048 3.94992L14.1546 3.39972L8.75041 8.80388L9.3006 9.35408ZM9.02551 9.46803H16.6399V8.68993H9.02551V9.46803ZM8.75041 9.35408L14.1546 14.7582L14.7048 14.208L9.3006 8.80388L8.75041 9.35408ZM8.63646 9.07898V16.9233H9.41455V9.07898H8.63646ZM8.75041 8.80388L3.20572 14.3486L3.75591 14.8988L9.3006 9.35408L8.75041 8.80388ZM9.02551 8.68993H1.15562V9.46803H9.02551V8.68993ZM9.3006 8.80388L3.75591 3.25919L3.20572 3.80938L8.75041 9.35408L9.3006 8.80388ZM9.41455 9.07898V1.3113H8.63646V9.07898H9.41455Z" fill="white"/>
</svg>
